<svg width="88" height="42" viewBox="0 0 88 42" fill="none" xmlns="http://www.w3.org/2000/svg">
<path d="M77.6879 28.4642V9.53799C77.6877 9.46748 77.7015 9.39764 77.7283 9.33244C77.7552 9.26725 77.7946 9.20798 77.8444 9.15802C77.8942 9.10807 77.9533 9.0684 78.0183 9.04129C78.0834 9.01418 78.1532 9.00016 78.2237 9.00002H84.4157C84.7164 9.00002 84.9516 9.23841 84.9516 9.53799V21.6055H87.3535C87.9358 21.6055 87.6805 22.2384 87.6805 22.2384L85.1277 28.5717C84.9516 28.999 84.4695 28.999 84.4695 28.999H78.2216C78.0804 28.9973 77.9454 28.9404 77.8457 28.8404C77.7459 28.7405 77.6892 28.6054 77.6879 28.4642Z" fill="#DB2777"/>
<path d="M66.8818 26.6994C66.0811 25.6087 65.8343 24.5433 65.7837 21.5696L65.5 10L65.5115 9.66457C65.7763 9.00002 66.4472 9.00002 66.4472 9.00002H72.3818C72.6792 9.00002 72.9197 9.23841 72.9197 9.53799V17.1277C72.9197 19.3059 73.001 20.0443 73.328 20.6593C73.4883 20.9452 73.7805 21.1931 74.1054 21.3165C74.6444 21.5675 74.9366 21.6055 76.3216 21.6055H78.7362V22.481L76.2795 28.5717C76.1075 28.999 75.6202 28.999 75.6202 28.999H72.9197C70.6212 28.999 69.5505 28.7532 68.3586 28.0549C67.7805 27.6825 67.2499 27.2342 66.8818 26.6994Z" fill="#DB2777"/>
<path d="M38.5 7C40.433 7 42.5 5.5 42.5 3.5C42.5 1.5 40.433 0 38.5 0C36.567 0 34.5 1.5 34.5 3.5C34.5 5.5 36.567 7 38.5 7Z" fill="#DB2777"/>
<path d="M38.5986 38.4662C40.524 36.759 41.9999 34.1903 41.9999 31.0039V9.54001C41.9999 9.54001 41.9406 9.26283 41.84 9.16286C41.7394 9.06289 41.6037 9.00629 41.4619 9.0052L35.8749 9.00392L35.2878 9C35.146 9.00109 35.0103 9.05769 34.9098 9.15766C34.8092 9.25763 34.7499 9.53481 34.7499 9.53481V31.0039C34.7499 31.8176 34.4007 32.4989 33.7886 33.0416C33.114 33.6398 32.3255 33.8789 31.8749 33.8789C31.8749 33.8789 31.3749 33.8789 30.6874 33.8789C30 33.8789 29.5 34.3909 29.5 35C29.5 35.6091 29.5 38.5643 29.5 40C29.5 40.5 30 41.1289 30.6874 41.1289H31.8749C34.2742 41.1289 36.7357 40.1181 38.5986 38.4662Z" fill="#DB2777"/>
<path d="M10.0483 12.9189V9.53481C10.047 9.39358 9.99032 9.2585 9.89055 9.15853C9.79077 9.05856 9.65581 9.00165 9.51458 9H3.26669C3.26669 9 2.78462 9 2.60846 9.42722L0.0557158 15.7605C0.0557158 15.7605 -0.199559 16.3935 0.38272 16.3935H2.78462V28.461C2.78462 28.7605 3.01985 28.9989 3.32048 28.9989H9.51247C9.58298 28.9988 9.65277 28.9848 9.71786 28.9577C9.78295 28.9306 9.84206 28.8909 9.89182 28.8409C9.94158 28.791 9.98101 28.7317 10.0079 28.6665C10.0347 28.6013 10.0485 28.5315 10.0483 28.461V16.3935H11.4146C12.7996 16.3935 13.0918 16.4314 13.6308 16.6825C13.9557 16.8059 14.2479 17.0538 14.4082 17.3397C14.7352 17.9546 14.8165 18.693 14.8165 20.8713V28.461C14.8165 28.7605 15.057 28.9989 15.3544 28.9989H21.289C21.289 28.9989 21.9599 28.9989 22.2247 28.3344L22.2362 27.9989L22.2247 20.8713C22.2038 19.6466 22.1035 17.9922 21.9368 16.3935H22.6784C24.0634 16.3935 24.3556 16.4314 24.8946 16.6825C25.2195 16.8059 25.5117 17.0538 25.672 17.3397C25.999 17.9546 26.0802 18.693 26.0802 20.8713V28.461C26.0802 28.7605 26.3208 28.9989 26.6182 28.9989H32.5528C32.5528 28.9989 33.2237 28.9989 33.4885 28.3344L33.5 27.9989L33.2163 16.4293C33.1657 13.4557 32.9189 12.3903 32.1182 11.2996C31.7501 10.7648 31.2195 10.3165 30.6414 9.94409C29.4494 9.24578 28.3788 9 26.0802 9H23.3798C23.3798 9 22.8925 9 22.7205 9.42722L21.3796 12.7517C21.2225 12.0774 21.0466 11.5613 20.8544 11.2996C20.4863 10.7648 19.9557 10.3165 19.3776 9.94409C18.1857 9.24578 17.115 9 14.8165 9H12.116C12.116 9 11.6287 9 11.4568 9.42722L10.0483 12.9189Z" fill="#DB2777"/>
<path fill-rule="evenodd" clip-rule="evenodd" d="M55.9331 9.15767C56.0337 9.05769 56.1694 9.0011 56.3112 9.00001L62.5042 9C62.646 9.00109 62.7818 9.05769 62.8823 9.15766C62.9829 9.25763 63.0422 9.53481 63.0422 9.53481V21.77H65.2047C65.2047 21.77 65.8365 21.77 65.7437 22.2711H65.7395C65.73 22.3165 63.307 28.3344 63.307 28.3344C63.039 28.999 62.3703 28.999 62.3703 28.999H56.3122C56.1696 28.999 56.0327 28.9423 55.9318 28.8414C55.831 28.7405 55.7743 28.6037 55.7743 28.461V22.6593L53.4831 28.3355C53.2163 28.9979 52.5412 28.9979 52.5412 28.9979H51.7595C48.1814 28.9979 45.3028 27.5338 43.5538 25.0823C43.5538 25.0823 41.75 22.4989 41.75 20.4989C41.75 18.4989 41.9663 16.4293 41.9663 16.4293C42.8988 11.9473 45.8924 9.00001 50.365 9.00001C52.3629 9.00001 55.7732 10.3713 55.7732 13.5781V9.53482C55.7751 9.39303 55.8325 9.25764 55.9331 9.15767ZM54.7722 21.7711H50.7026C49.9235 21.7711 49.1762 21.4616 48.6253 20.9106C48.0744 20.3597 47.7648 19.6125 47.7648 18.8333C47.7648 18.0542 48.0744 17.307 48.6253 16.756C49.1762 16.2051 49.9235 15.8956 50.7026 15.8956H51.8408C52.6191 15.8978 53.3648 16.2085 53.9145 16.7596C54.4642 17.3106 54.773 18.0571 54.7733 18.8354L54.7722 21.7711Z" fill="#DB2777"/>
</svg>
