<svg width="32" height="32" viewBox="0 0 32 32" fill="none" xmlns="http://www.w3.org/2000/svg">
<path d="M9.59841 10.43V7.19739C9.5971 7.06248 9.54299 6.93345 9.44769 6.83795C9.35238 6.74246 9.22346 6.6881 9.08855 6.68652H3.12042C3.12042 6.68652 2.65993 6.68652 2.49166 7.09461L0.0532211 13.1444C0.0532211 13.1444 -0.190623 13.7489 0.365583 13.7489H2.65993V25.2761C2.65993 25.5623 2.88463 25.79 3.17181 25.79H9.08654C9.15389 25.7899 9.22055 25.7765 9.28273 25.7506C9.3449 25.7247 9.40137 25.6868 9.4489 25.6391C9.49643 25.5913 9.5341 25.5347 9.55975 25.4725C9.5854 25.4102 9.59854 25.3435 9.59841 25.2761V13.7489H10.9035C12.2265 13.7489 12.5056 13.7852 13.0205 14.025C13.3308 14.1429 13.6099 14.3797 13.7631 14.6528C14.0754 15.2402 14.153 15.9455 14.153 18.0263V25.2761C14.153 25.5623 14.3828 25.79 14.6669 25.79H20.3358C20.3358 25.79 20.9766 25.79 21.2295 25.1552L21.2406 24.8348L21.2295 18.0263C21.2096 16.8564 21.1138 15.276 20.9546 13.7489H21.6629C22.9859 13.7489 23.265 13.7852 23.7799 14.025C24.0903 14.1429 24.3694 14.3797 24.5225 14.6528C24.8349 15.2402 24.9125 15.9455 24.9125 18.0263V25.2761C24.9125 25.5623 25.1422 25.79 25.4264 25.79H31.0952C31.0952 25.79 31.7361 25.79 31.989 25.1552L32 24.8348L31.729 13.7832C31.6807 10.9427 31.4449 9.92501 30.6801 8.88313C30.3284 8.37227 29.8216 7.94403 29.2694 7.58834C28.1308 6.9213 27.1081 6.68652 24.9125 6.68652H22.333C22.333 6.68652 21.8674 6.68652 21.7032 7.09461L20.4223 10.2703C20.2722 9.62611 20.1042 9.13315 19.9207 8.88313C19.569 8.37227 19.0622 7.94403 18.51 7.58834C17.3714 6.9213 16.3486 6.68652 14.153 6.68652H11.5735C11.5735 6.68652 11.108 6.68652 10.9438 7.09461L9.59841 10.43Z" fill="#DB2777"/>
</svg>
